# xmcd
#
# Track frame offsets: 
#        150
#        12842
#        25582
#        36837
#        49220
#        61055
#        73760
#        85917
#        98922
#        112337
#        125240
#        136887
#        149262
#        158935
#        172935
#        185362
#        198200
#        210697
#        225115
#        237457
#        248077
#        259595
#        270207
#
# Disc length: 3755 seconds
#
# Revision: 0
# Processed by: cddbd v1.5.2PL0 Copyright (c) Steve Scherf et al.
# Submitted via: ExactAudioCopy v1.0b1
#
DISCID=3a0ea917
DTITLE=The Four Tops - Four Tops - Second Album
DYEAR=2001
DGENRE=R&B
TTITLE0=Baby I Need Your Loving
TTITLE1=Without the One You Love (Life's Not Worthwhile)
TTITLE2=Where Did You Go?
TTITLE3=Ask The Lonely
TTITLE4=Your Love Is Amazing
TTITLE5=Sad Souvenirs
TTITLE6=Don't Turn Away
TTITLE7=Tea House In China Town
TTITLE8=Left With A Broken Heart
TTITLE9=Love Has Gone
TTITLE10=Call On Me
TTITLE11=I Can't Help Myself (Sugar Pie, Honey Bunch)
TTITLE12=Love Feels Like Fire
TTITLE13=Is There Anything That I Can Do?
TTITLE14=Something About You
TTITLE15=It's The Same Old Song
TTITLE16=Helpless
TTITLE17=Just As Long As You Need Me
TTITLE18=Darling, I Hum Our Song
TTITLE19=I Like Everything About You
TTITLE20=Since You've Been Gone
TTITLE21=Stay In My Lonely Arms
TTITLE22=I'm Grateful
EXTD=
EXTT0=
EXTT1=
EXTT2=
EXTT3=
EXTT4=
EXTT5=
EXTT6=
EXTT7=
EXTT8=
EXTT9=
EXTT10=
EXTT11=
EXTT12=
EXTT13=
EXTT14=
EXTT15=
EXTT16=
EXTT17=
EXTT18=
EXTT19=
EXTT20=
EXTT21=
EXTT22=
PLAYORDER=
